<svg width="54" height="61" viewBox="0 0 54 61" fill="none" xmlns="http://www.w3.org/2000/svg">
<g clip-path="url(#clip0)">
<path d="M6.12807 11.8928V49.0577L0.0825806 45.5725V15.378L6.12807 11.8928Z" fill="#333333" stroke="#333333" stroke-width="0.165177" stroke-miterlimit="10"/>
<path d="M16.336 6.12808V54.9545L10.6539 51.6675L10.3071 51.4693V9.48118L16.1048 6.12808H16.336Z" fill="#333333" stroke="#333333" stroke-width="0.165177" stroke-miterlimit="10"/>
<path d="M53.2202 16.336V15.0807L46.9764 11.4798L44.9613 10.3236H26.7257V6.12807H36.8511V5.61602L32.4904 3.10533L27.2543 0.0825806H26.5936L20.5316 3.58434V57.3661L20.6967 57.4652L26.6762 60.9174L26.7257 60.8844L32.4904 57.5478L36.8511 55.0371L43.0122 51.4693L46.9764 49.1898L53.2202 45.5889V20.515H26.7257V16.336H53.2202ZM46.9764 26.7257V42.3019L43.0122 44.5814L36.8511 48.1327L32.4904 50.6434L26.7257 53.98V49.2229L32.4904 45.8863L36.8511 43.3756L43.0122 39.8077V26.7092H46.9764V26.7257ZM36.8511 26.7257V36.5537L32.4904 39.0644L26.7257 42.401V26.7422H36.8511V26.7257Z" fill="#333333" stroke="#333333" stroke-width="0.165177" stroke-miterlimit="10"/>
</g>
<defs>
<clipPath id="clip0">
<rect width="53.3027" height="61" fill="white"/>
</clipPath>
</defs>
</svg>
